<svg width="12" height="10" viewBox="0 0 12 10" fill="none" xmlns="http://www.w3.org/2000/svg">
<path d="M11.4665 0.534989C11.2319 0.334596 10.9273 0.235565 10.6197 0.259661C10.3121 0.283756 10.0266 0.429007 9.82602 0.663489L4.81602 6.52274L2.12077 4.27274C2.01407 4.18095 1.89019 4.11129 1.75633 4.06781C1.62247 4.02432 1.48131 4.00788 1.34104 4.01943C1.20077 4.03098 1.06419 4.0703 0.939251 4.13511C0.81431 4.19991 0.703497 4.2889 0.613252 4.3969C0.523008 4.50491 0.455131 4.62978 0.41357 4.76424C0.372008 4.89871 0.35759 5.0401 0.371154 5.18019C0.384718 5.32028 0.425992 5.45628 0.492579 5.58028C0.559165 5.70428 0.649735 5.8138 0.759024 5.90249L4.37002 8.91749C4.48137 9.01032 4.61064 9.07923 4.74978 9.11992C4.88892 9.16061 5.03495 9.17221 5.17877 9.15399C5.3313 9.1422 5.48001 9.10045 5.61638 9.03113C5.75275 8.96181 5.87412 8.86627 5.97352 8.74999L11.5943 2.17499C11.7944 1.94024 11.8933 1.63567 11.8692 1.32811C11.845 1.02055 11.6999 0.735133 11.4655 0.534488" fill="#F4F4F4"/>
</svg>
