<svg width="18" height="18" viewBox="0 0 18 18" fill="none" xmlns="http://www.w3.org/2000/svg">
<path d="M13.6479 1.57275L8.99993 6.221C7.45068 4.67225 5.90093 3.122 4.35143 1.57275C2.55893 -0.219754 -0.219565 2.55975 1.57143 4.35275C3.12118 5.901 4.67143 7.4515 6.21943 9.00075C4.67073 10.5507 3.12139 12.1 1.57143 13.6487C-0.219565 15.4407 2.55918 18.2195 4.35143 16.4287C5.90068 14.879 7.45043 13.329 8.99968 11.7802L13.6477 16.4287C15.4402 18.2207 18.2194 15.441 16.4277 13.6487C14.8779 12.099 13.3287 10.5497 11.7784 9.00025C13.3284 7.4505 14.8777 5.90075 16.4277 4.35125C18.2197 2.55975 15.4404 -0.219754 13.6477 1.57375" fill="#EC1C24"/>
</svg>
